<?xml version="1.0" encoding="utf-8"?>
<!-- Generator: Adobe Illustrator 24.1.0, SVG Export Plug-In . SVG Version: 6.00 Build 0)  -->
<svg version="1.1" id="Layer_1" xmlns="http://www.w3.org/2000/svg" xmlns:xlink="http://www.w3.org/1999/xlink" x="0px" y="0px"
	 viewBox="0 0 200 200" style="enable-background:new 0 0 200 200;" xml:space="preserve">
<style type="text/css">
	.st0{fill:#171717;}
	.st1{fill:#FFFFFF;stroke:#000000;}
	.st2{fill:#FFFFFF;}
</style>
<g>
	<circle class="st0" cx="100.5" cy="99.5" r="78"/>
	<path class="st0" d="M100.5,22c42.73,0,77.5,34.77,77.5,77.5S143.23,177,100.5,177S23,142.23,23,99.5S57.77,22,100.5,22 M100.5,21
		C57.15,21,22,56.15,22,99.5S57.15,178,100.5,178S179,142.85,179,99.5S143.85,21,100.5,21L100.5,21z"/>
</g>
<g>
	<path class="st1" d="M71.73,145.09c1.07-0.69,1.96-1.49,2.65-2.41c0.69-0.92,1.21-2.07,1.55-3.45c0.35-1.38,0.59-3.11,0.75-5.17
		c0.31-4.75,0.54-9.6,0.69-14.55c0.15-4.95,0.23-10.6,0.23-16.96V86.91c0-6.36-0.08-12.02-0.23-16.96
		c-0.15-4.95-0.38-9.91-0.69-14.89c1.3,0.15,2.72,0.29,4.25,0.4c1.53,0.12,3.26,0.17,5.18,0.17c1.92,0,3.64-0.06,5.17-0.17
		c1.53-0.11,2.95-0.25,4.25-0.4c-0.31,4.98-0.54,9.95-0.69,14.89c-0.15,4.94-0.23,10.6-0.23,16.96v15.64
		c0,3.22,0.04,6.59,0.12,10.12c0.08,3.53,0.12,7.13,0.12,10.81c0,8.97-2.13,15.72-6.38,20.24c-4.25,4.52-10.6,7.48-19.03,8.86
		l-1.72-5.41C69.31,146.48,70.65,145.79,71.73,145.09z"/>
	<path class="st1" d="M103.69,69.94c-0.15-4.95-0.38-9.91-0.69-14.89c1.3,0.15,2.72,0.29,4.25,0.4c1.53,0.12,3.26,0.17,5.17,0.17
		c1.92,0,3.64-0.06,5.17-0.17c1.53-0.11,2.95-0.25,4.25-0.4c-0.31,4.98-0.54,9.95-0.69,14.89c-0.16,4.94-0.23,10.6-0.23,16.96v15.64
		c0,4.37,0.02,8.59,0.06,12.65c0.04,4.06,0.1,7.59,0.17,10.58c4.37,0,8.74-0.12,13.11-0.35c4.37-0.23,8.78-0.61,13.23-1.15
		c-0.16,0.84-0.27,1.61-0.35,2.3c-0.08,0.69-0.11,1.65-0.11,2.88c0,1.23,0.04,2.19,0.11,2.88c0.08,0.69,0.19,1.26,0.35,1.73
		c-2.07-0.08-4.62-0.13-7.65-0.17c-3.03-0.04-7.19-0.06-12.48-0.06c-4.68,0-8.47,0-11.39,0c-2.84,0-5.12,0-6.84,0
		c-1.73,0-3.03,0.02-3.91,0.06c-0.88,0.04-1.63,0.09-2.24,0.17c0.3-4.75,0.54-9.6,0.69-14.55c0.15-4.95,0.23-10.6,0.23-16.96V86.91
		C103.92,80.54,103.85,74.89,103.69,69.94z"/>
</g>
<g>
	<path class="st2" d="M99.5,33c36.67,0,66.5,29.83,66.5,66.5S136.17,166,99.5,166S33,136.17,33,99.5S62.83,33,99.5,33 M99.5,32
		C62.22,32,32,62.22,32,99.5S62.22,167,99.5,167S167,136.78,167,99.5S136.78,32,99.5,32L99.5,32z"/>
</g>
</svg>
